<?xml version="1.0" encoding="iso-8859-1"?>
<!-- Generator: Adobe Illustrator 19.0.0, SVG Export Plug-In . SVG Version: 6.00 Build 0)  -->
<svg xmlns="http://www.w3.org/2000/svg" xmlns:xlink="http://www.w3.org/1999/xlink" version="1.1" id="Capa_1" x="0px" y="0px" viewBox="0 0 512 512" style="enable-background:new 0 0 512 512;" xml:space="preserve" width="512px" height="512px">
<g>
	<g>
		<path d="M485.052,43.61h-87.579V13.484c0-5.618-4.527-10.172-10.105-10.172c-5.578,0-10.105,4.554-10.105,10.172v30.134H134.656    V13.484c0-5.618-4.527-10.172-10.105-10.172s-10.105,4.554-10.105,10.172v30.134H26.948C12.12,43.618,0,55.832,0,70.747v410.812    c0,14.922,12.12,27.129,26.948,27.129h458.105c14.814,0,26.947-12.214,26.947-27.129V70.747    C512,55.825,499.867,43.61,485.052,43.61z M491.789,481.559c0,3.672-3.093,6.784-6.737,6.784H26.948    c-3.658,0-6.737-3.112-6.737-6.784V165.151h471.578V481.559z M491.79,144.804H20.211V70.747c0-3.679,3.078-6.784,6.737-6.784    h87.498v37.713c0,5.618,4.527,10.172,10.105,10.172s10.105-4.554,10.105-10.172V63.963h242.607v37.713    c0,5.618,4.527,10.172,10.105,10.172c5.578,0,10.105-4.554,10.105-10.172V63.963h87.579c3.645,0,6.737,3.106,6.737,6.784V144.804z    " fill="#f57c00"/>
	</g>
</g>
<g>
	<g>
		<path d="M232.555,232.336h-47.144c-5.578,0-10.105,4.561-10.105,10.179s4.527,10.179,10.105,10.179h47.144    c5.578,0,10.105-4.561,10.105-10.179S238.133,232.336,232.555,232.336z" fill="#f57c00"/>
	</g>
</g>
<g>
	<g>
		<path d="M326.871,232.336h-47.158c-5.578,0-10.105,4.561-10.105,10.179s4.527,10.179,10.105,10.179h47.158    c5.578,0,10.105-4.561,10.105-10.179C336.976,236.897,332.449,232.336,326.871,232.336z" fill="#f57c00"/>
	</g>
</g>
<g>
	<g>
		<path d="M421.186,232.336h-47.158c-5.578,0-10.105,4.561-10.105,10.179s4.527,10.179,10.105,10.179h47.158    c5.578,0,10.105-4.561,10.105-10.179S426.765,232.336,421.186,232.336z" fill="#f57c00"/>
	</g>
</g>
<g>
	<g>
		<path d="M232.555,292.968h-47.144c-5.578,0-10.105,4.561-10.105,10.179s4.527,10.179,10.105,10.179h47.144    c5.578,0,10.105-4.561,10.105-10.179S238.133,292.968,232.555,292.968z" fill="#f57c00"/>
	</g>
</g>
<g>
	<g>
		<path d="M326.871,292.968h-47.158c-5.578,0-10.105,4.561-10.105,10.179s4.527,10.179,10.105,10.179h47.158    c5.578,0,10.105-4.561,10.105-10.179C336.976,297.529,332.449,292.968,326.871,292.968z" fill="#f57c00"/>
	</g>
</g>
<g>
	<g>
		<path d="M421.186,292.968h-47.158c-5.578,0-10.105,4.561-10.105,10.179s4.527,10.179,10.105,10.179h47.158    c5.578,0,10.105-4.561,10.105-10.179S426.765,292.968,421.186,292.968z" fill="#f57c00"/>
	</g>
</g>
<g>
	<g>
		<path d="M131.51,292.968H84.352c-5.578,0-10.105,4.561-10.105,10.179s4.527,10.179,10.105,10.179h47.158    c5.565,0,10.105-4.561,10.105-10.179C141.614,297.529,137.081,292.968,131.51,292.968z" fill="#f57c00"/>
	</g>
</g>
<g>
	<g>
		<path d="M232.555,353.606h-47.144c-5.578,0-10.105,4.554-10.105,10.172c0,5.618,4.527,10.179,10.105,10.179h47.144    c5.578,0,10.105-4.561,10.105-10.179C242.661,358.16,238.133,353.606,232.555,353.606z" fill="#f57c00"/>
	</g>
</g>
<g>
	<g>
		<path d="M326.871,353.606h-47.158c-5.578,0-10.105,4.554-10.105,10.172c0,5.618,4.527,10.179,10.105,10.179h47.158    c5.578,0,10.105-4.561,10.105-10.179C336.976,358.16,332.449,353.606,326.871,353.606z" fill="#f57c00"/>
	</g>
</g>
<g>
	<g>
		<path d="M421.186,353.606h-47.158c-5.578,0-10.105,4.554-10.105,10.172c0,5.618,4.527,10.179,10.105,10.179h47.158    c5.578,0,10.105-4.561,10.105-10.179C431.292,358.16,426.765,353.606,421.186,353.606z" fill="#f57c00"/>
	</g>
</g>
<g>
	<g>
		<path d="M131.51,353.606H84.352c-5.578,0-10.105,4.554-10.105,10.172c0,5.618,4.527,10.179,10.105,10.179h47.158    c5.565,0,10.105-4.561,10.105-10.179C141.616,358.16,137.081,353.606,131.51,353.606z" fill="#f57c00"/>
	</g>
</g>
<g>
	<g>
		<path d="M131.51,414.238H84.352c-5.578,0-10.105,4.554-10.105,10.172c0,5.618,4.527,10.179,10.105,10.179h47.158    c5.565,0,10.105-4.561,10.105-10.179C141.614,418.792,137.081,414.238,131.51,414.238z" fill="#f57c00"/>
	</g>
</g>
<g>
	<g>
		<path d="M225.819,414.238h-47.144c-5.578,0-10.105,4.554-10.105,10.172c0,5.618,4.527,10.179,10.105,10.179h47.144    c5.578,0,10.105-4.561,10.105-10.179C235.924,418.792,231.397,414.238,225.819,414.238z" fill="#f57c00"/>
	</g>
</g>
<g>
	<g>
		<path d="M320.134,414.238h-47.158c-5.578,0-10.105,4.554-10.105,10.172c0,5.618,4.527,10.179,10.105,10.179h47.158    c5.578,0,10.105-4.561,10.105-10.179C330.24,418.792,325.712,414.238,320.134,414.238z" fill="#f57c00"/>
	</g>
</g>
<g>
</g>
<g>
</g>
<g>
</g>
<g>
</g>
<g>
</g>
<g>
</g>
<g>
</g>
<g>
</g>
<g>
</g>
<g>
</g>
<g>
</g>
<g>
</g>
<g>
</g>
<g>
</g>
<g>
</g>
</svg>
